bicep_curl
version=1
nRows=501
nColumns=3
inDegrees=yes

# SIMM Motion File Header:
name bicep_curl
datacolumns 3
datarows 501
otherdata 1
range 0.0000 0.5000
endheader
time	/jointset/r_shoulder/r_shoulder_elev/value	/jointset/r_elbow/r_elbow_flex/value
0.0000	0.0000	7.8400
0.0010	0.0000	7.8999
0.0020	0.0000	7.9598
0.0030	0.0000	8.0196
0.0040	0.0000	8.0795
0.0050	0.0000	8.1394
0.0060	0.0000	8.1993
0.0070	0.0000	8.2592
0.0080	0.0000	8.3190
0.0090	0.0000	8.3789
0.0100	0.0000	8.4388
0.0110	0.0000	8.4987
0.0120	0.0000	8.5586
0.0130	0.0000	8.6184
0.0140	0.0000	8.6783
0.0150	0.0000	8.7382
0.0160	0.0000	8.7981
0.0170	0.0000	8.8580
0.0180	0.0000	8.9178
0.0190	0.0000	8.9777
0.0200	0.0000	9.0376
0.0210	0.0000	9.0975
0.0220	0.0000	9.1573
0.0230	0.0000	9.2172
0.0240	0.0000	9.2771
0.0250	0.0000	9.3370
0.0260	0.0000	9.3969
0.0270	0.0000	9.4567
0.0280	0.0000	9.5166
0.0290	0.0000	9.5765
0.0300	0.0000	9.6364
0.0310	0.0000	9.6963
0.0320	0.0000	9.7561
0.0330	0.0000	9.8160
0.0340	0.0000	9.8759
0.0350	0.0000	9.9358
0.0360	0.0000	9.9957
0.0370	0.0000	10.0555
0.0380	0.0000	10.1154
0.0390	0.0000	10.1753
0.0400	0.0000	10.2352
0.0410	0.0000	10.2951
0.0420	0.0000	10.3549
0.0430	0.0000	10.4148
0.0440	0.0000	10.4747
0.0450	0.0000	10.5346
0.0460	0.0000	10.5945
0.0470	0.0000	10.6543
0.0480	0.0000	10.7142
0.0490	0.0000	10.7741
0.0500	0.0000	10.8340
0.0510	0.0000	10.8939
0.0520	0.0000	10.9537
0.0530	0.0000	11.0136
0.0540	0.0000	11.0735
0.0550	0.0000	11.1334
0.0560	0.0000	11.1933
0.0570	0.0000	11.2531
0.0580	0.0000	11.3130
0.0590	0.0000	11.3729
0.0600	0.0000	11.4328
0.0610	0.0000	11.4927
0.0620	0.0000	11.5525
0.0630	0.0000	11.6124
0.0640	0.0000	11.6723
0.0650	0.0000	11.7322
0.0660	0.0000	11.7920
0.0670	0.0000	11.8519
0.0680	0.0000	11.9118
0.0690	0.0000	11.9717
0.0700	0.0000	12.0316
0.0710	0.0000	12.0914
0.0720	0.0000	12.1513
0.0730	0.0000	12.2112
0.0740	0.0000	12.2711
0.0750	0.0000	12.3310
0.0760	0.0000	12.3908
0.0770	0.0000	12.4507
0.0780	0.0000	12.5106
0.0790	0.0000	12.5705
0.0800	0.0000	12.6304
0.0810	0.0000	12.6902
0.0820	0.0000	12.7501
0.0830	0.0000	12.8100
0.0840	0.0000	12.8699
0.0850	0.0000	12.9298
0.0860	0.0000	12.9896
0.0870	0.0000	13.0495
0.0880	0.0000	13.1094
0.0890	0.0000	13.1693
0.0900	0.0000	13.2292
0.0910	0.0000	13.2890
0.0920	0.0000	13.3489
0.0930	0.0000	13.4088
0.0940	0.0000	13.4687
0.0950	0.0000	13.5286
0.0960	0.0000	13.5884
0.0970	0.0000	13.6483
0.0980	0.0000	13.7082
0.0990	0.0000	13.7681
0.1000	0.0000	13.8280
0.1010	0.0000	13.8878
0.1020	0.0000	13.9477
0.1030	0.0000	14.0076
0.1040	0.0000	14.0675
0.1050	0.0000	14.1273
0.1060	0.0000	14.1872
0.1070	0.0000	14.2471
0.1080	0.0000	14.3070
0.1090	0.0000	14.3669
0.1100	0.0000	14.4267
0.1110	0.0000	14.4866
0.1120	0.0000	14.5465
0.1130	0.0000	14.6064
0.1140	0.0000	14.6663
0.1150	0.0000	14.7261
0.1160	0.0000	14.7860
0.1170	0.0000	14.8459
0.1180	0.0000	14.9058
0.1190	0.0000	14.9657
0.1200	0.0000	15.0255
0.1210	0.0000	15.0854
0.1220	0.0000	15.1453
0.1230	0.0000	15.2052
0.1240	0.0000	15.2651
0.1250	0.0000	15.3249
0.1260	0.0000	15.3848
0.1270	0.0000	15.4447
0.1280	0.0000	15.5046
0.1290	0.0000	15.5645
0.1300	0.0000	15.6243
0.1310	0.0000	15.6842
0.1320	0.0000	15.7441
0.1330	0.0000	15.8040
0.1340	0.0000	15.8639
0.1350	0.0000	15.9237
0.1360	0.0000	15.9836
0.1370	0.0000	16.0435
0.1380	0.0000	16.1034
0.1390	0.0000	16.1633
0.1400	0.0000	16.2231
0.1410	0.0000	16.2830
0.1420	0.0000	16.3429
0.1430	0.0000	16.4028
0.1440	0.0000	16.4627
0.1450	0.0000	16.5225
0.1460	0.0000	16.5824
0.1470	0.0000	16.6423
0.1480	0.0000	16.7022
0.1490	0.0000	16.7620
0.1500	0.0000	16.8219
0.1510	0.0000	16.8818
0.1520	0.0000	16.9417
0.1530	0.0000	17.0016
0.1540	0.0000	17.0614
0.1550	0.0000	17.1213
0.1560	0.0000	17.1812
0.1570	0.0000	17.2411
0.1580	0.0000	17.3010
0.1590	0.0000	17.3608
0.1600	0.0000	17.4207
0.1610	0.0000	17.4806
0.1620	0.0000	17.5405
0.1630	0.0000	17.6004
0.1640	0.0000	17.6602
0.1650	0.0000	17.7201
0.1660	0.0000	17.7800
0.1670	0.0000	17.8127
0.1680	0.0000	17.8454
0.1690	0.0000	17.8781
0.1700	0.0000	17.9108
0.1710	0.0000	17.9435
0.1720	0.0000	17.9762
0.1730	0.0000	18.0089
0.1740	0.0000	18.0416
0.1750	0.0000	18.0743
0.1760	0.0000	18.1069
0.1770	0.0000	18.1396
0.1780	0.0000	18.1723
0.1790	0.0000	18.2050
0.1800	0.0000	18.2377
0.1810	0.0000	18.2704
0.1820	0.0000	18.3031
0.1830	0.0000	18.3358
0.1840	0.0000	18.3685
0.1850	0.0000	18.4012
0.1860	0.0000	18.4339
0.1870	0.0000	18.4666
0.1880	0.0000	18.4993
0.1890	0.0000	18.5320
0.1900	0.0000	18.5647
0.1910	0.0000	18.5974
0.1920	0.0000	18.6301
0.1930	0.0000	18.6628
0.1940	0.0000	18.6954
0.1950	0.0000	18.7281
0.1960	0.0000	18.7608
0.1970	0.0000	18.7935
0.1980	0.0000	18.8262
0.1990	0.0000	18.8589
0.2000	0.0000	18.8916
0.2010	0.0000	18.9243
0.2020	0.0000	18.9570
0.2030	0.0000	18.9897
0.2040	0.0000	19.0224
0.2050	0.0000	19.0551
0.2060	0.0000	19.0878
0.2070	0.0000	19.1205
0.2080	0.0000	19.1532
0.2090	0.0000	19.1859
0.2100	0.0000	19.2186
0.2110	0.0000	19.2513
0.2120	0.0000	19.2840
0.2130	0.0000	19.3166
0.2140	0.0000	19.3493
0.2150	0.0000	19.3820
0.2160	0.0000	19.4147
0.2170	0.0000	19.4474
0.2180	0.0000	19.4801
0.2190	0.0000	19.5128
0.2200	0.0000	19.5455
0.2210	0.0000	19.5782
0.2220	0.0000	19.6109
0.2230	0.0000	19.6436
0.2240	0.0000	19.6763
0.2250	0.0000	19.7090
0.2260	0.0000	19.7417
0.2270	0.0000	19.7744
0.2280	0.0000	19.8071
0.2290	0.0000	19.8398
0.2300	0.0000	19.8725
0.2310	0.0000	19.9051
0.2320	0.0000	19.9378
0.2330	0.0000	19.9705
0.2340	0.0000	20.0032
0.2350	0.0000	20.0359
0.2360	0.0000	20.0686
0.2370	0.0000	20.1013
0.2380	0.0000	20.1340
0.2390	0.0000	20.1667
0.2400	0.0000	20.1994
0.2410	0.0000	20.2321
0.2420	0.0000	20.2648
0.2430	0.0000	20.2975
0.2440	0.0000	20.3302
0.2450	0.0000	20.3629
0.2460	0.0000	20.3956
0.2470	0.0000	20.4283
0.2480	0.0000	20.4610
0.2490	0.0000	20.4937
0.2500	0.0000	20.5263
0.2510	0.0000	20.5590
0.2520	0.0000	20.5917
0.2530	0.0000	20.6244
0.2540	0.0000	20.6571
0.2550	0.0000	20.6898
0.2560	0.0000	20.7225
0.2570	0.0000	20.7552
0.2580	0.0000	20.7879
0.2590	0.0000	20.8206
0.2600	0.0000	20.8533
0.2610	0.0000	20.8860
0.2620	0.0000	20.9187
0.2630	0.0000	20.9514
0.2640	0.0000	20.9841
0.2650	0.0000	21.0168
0.2660	0.0000	21.0495
0.2670	0.0000	21.0822
0.2680	0.0000	21.1149
0.2690	0.0000	21.1475
0.2700	0.0000	21.1802
0.2710	0.0000	21.2129
0.2720	0.0000	21.2456
0.2730	0.0000	21.2783
0.2740	0.0000	21.3110
0.2750	0.0000	21.3437
0.2760	0.0000	21.3764
0.2770	0.0000	21.4091
0.2780	0.0000	21.4418
0.2790	0.0000	21.4745
0.2800	0.0000	21.5072
0.2810	0.0000	21.5399
0.2820	0.0000	21.5726
0.2830	0.0000	21.6053
0.2840	0.0000	21.6380
0.2850	0.0000	21.6707
0.2860	0.0000	21.7034
0.2870	0.0000	21.7360
0.2880	0.0000	21.7687
0.2890	0.0000	21.8014
0.2900	0.0000	21.8341
0.2910	0.0000	21.8668
0.2920	0.0000	21.8995
0.2930	0.0000	21.9322
0.2940	0.0000	21.9649
0.2950	0.0000	21.9976
0.2960	0.0000	22.0303
0.2970	0.0000	22.0630
0.2980	0.0000	22.0957
0.2990	0.0000	22.1284
0.3000	0.0000	22.1611
0.3010	0.0000	22.1938
0.3020	0.0000	22.2265
0.3030	0.0000	22.2592
0.3040	0.0000	22.2919
0.3050	0.0000	22.3246
0.3060	0.0000	22.3572
0.3070	0.0000	22.3899
0.3080	0.0000	22.4226
0.3090	0.0000	22.4553
0.3100	0.0000	22.4880
0.3110	0.0000	22.5207
0.3120	0.0000	22.5534
0.3130	0.0000	22.5861
0.3140	0.0000	22.6188
0.3150	0.0000	22.6515
0.3160	0.0000	22.6842
0.3170	0.0000	22.7169
0.3180	0.0000	22.7496
0.3190	0.0000	22.7823
0.3200	0.0000	22.8150
0.3210	0.0000	22.8477
0.3220	0.0000	22.8804
0.3230	0.0000	22.9131
0.3240	0.0000	22.9457
0.3250	0.0000	22.9784
0.3260	0.0000	23.0111
0.3270	0.0000	23.0438
0.3280	0.0000	23.0765
0.3290	0.0000	23.1092
0.3300	0.0000	23.1419
0.3310	0.0000	23.1746
0.3320	0.0000	23.2073
0.3330	0.0000	23.2400
0.3340	0.0000	23.2400
0.3350	0.0000	23.2400
0.3360	0.0000	23.2400
0.3370	0.0000	23.2400
0.3380	0.0000	23.2400
0.3390	0.0000	23.2400
0.3400	0.0000	23.2400
0.3410	0.0000	23.2400
0.3420	0.0000	23.2400
0.3430	0.0000	23.2400
0.3440	0.0000	23.2400
0.3450	0.0000	23.2400
0.3460	0.0000	23.2400
0.3470	0.0000	23.2400
0.3480	0.0000	23.2400
0.3490	0.0000	23.2400
0.3500	0.0000	23.2400
0.3510	0.0000	23.2400
0.3520	0.0000	23.2400
0.3530	0.0000	23.2400
0.3540	0.0000	23.2400
0.3550	0.0000	23.2400
0.3560	0.0000	23.2400
0.3570	0.0000	23.2400
0.3580	0.0000	23.2400
0.3590	0.0000	23.2400
0.3600	0.0000	23.2400
0.3610	0.0000	23.2400
0.3620	0.0000	23.2400
0.3630	0.0000	23.2400
0.3640	0.0000	23.2400
0.3650	0.0000	23.2400
0.3660	0.0000	23.2400
0.3670	0.0000	23.2400
0.3680	0.0000	23.2400
0.3690	0.0000	23.2400
0.3700	0.0000	23.2400
0.3710	0.0000	23.2400
0.3720	0.0000	23.2400
0.3730	0.0000	23.2400
0.3740	0.0000	23.2400
0.3750	0.0000	23.2400
0.3760	0.0000	23.2400
0.3770	0.0000	23.2400
0.3780	0.0000	23.2400
0.3790	0.0000	23.2400
0.3800	0.0000	23.2400
0.3810	0.0000	23.2400
0.3820	0.0000	23.2400
0.3830	0.0000	23.2400
0.3840	0.0000	23.2400
0.3850	0.0000	23.2400
0.3860	0.0000	23.2400
0.3870	0.0000	23.2400
0.3880	0.0000	23.2400
0.3890	0.0000	23.2400
0.3900	0.0000	23.2400
0.3910	0.0000	23.2400
0.3920	0.0000	23.2400
0.3930	0.0000	23.2400
0.3940	0.0000	23.2400
0.3950	0.0000	23.2400
0.3960	0.0000	23.2400
0.3970	0.0000	23.2400
0.3980	0.0000	23.2400
0.3990	0.0000	23.2400
0.4000	0.0000	23.2400
0.4010	0.0000	23.2400
0.4020	0.0000	23.2400
0.4030	0.0000	23.2400
0.4040	0.0000	23.2400
0.4050	0.0000	23.2400
0.4060	0.0000	23.2400
0.4070	0.0000	23.2400
0.4080	0.0000	23.2400
0.4090	0.0000	23.2400
0.4100	0.0000	23.2400
0.4110	0.0000	23.2400
0.4120	0.0000	23.2400
0.4130	0.0000	23.2400
0.4140	0.0000	23.2400
0.4150	0.0000	23.2400
0.4160	0.0000	23.2400
0.4170	0.0000	23.2400
0.4180	0.0000	23.2400
0.4190	0.0000	23.2400
0.4200	0.0000	23.2400
0.4210	0.0000	23.2400
0.4220	0.0000	23.2400
0.4230	0.0000	23.2400
0.4240	0.0000	23.2400
0.4250	0.0000	23.2400
0.4260	0.0000	23.2400
0.4270	0.0000	23.2400
0.4280	0.0000	23.2400
0.4290	0.0000	23.2400
0.4300	0.0000	23.2400
0.4310	0.0000	23.2400
0.4320	0.0000	23.2400
0.4330	0.0000	23.2400
0.4340	0.0000	23.2400
0.4350	0.0000	23.2400
0.4360	0.0000	23.2400
0.4370	0.0000	23.2400
0.4380	0.0000	23.2400
0.4390	0.0000	23.2400
0.4400	0.0000	23.2400
0.4410	0.0000	23.2400
0.4420	0.0000	23.2400
0.4430	0.0000	23.2400
0.4440	0.0000	23.2400
0.4450	0.0000	23.2400
0.4460	0.0000	23.2400
0.4470	0.0000	23.2400
0.4480	0.0000	23.2400
0.4490	0.0000	23.2400
0.4500	0.0000	23.2400
0.4510	0.0000	23.2400
0.4520	0.0000	23.2400
0.4530	0.0000	23.2400
0.4540	0.0000	23.2400
0.4550	0.0000	23.2400
0.4560	0.0000	23.2400
0.4570	0.0000	23.2400
0.4580	0.0000	23.2400
0.4590	0.0000	23.2400
0.4600	0.0000	23.2400
0.4610	0.0000	23.2400
0.4620	0.0000	23.2400
0.4630	0.0000	23.2400
0.4640	0.0000	23.2400
0.4650	0.0000	23.2400
0.4660	0.0000	23.2400
0.4670	0.0000	23.2400
0.4680	0.0000	23.2400
0.4690	0.0000	23.2400
0.4700	0.0000	23.2400
0.4710	0.0000	23.2400
0.4720	0.0000	23.2400
0.4730	0.0000	23.2400
0.4740	0.0000	23.2400
0.4750	0.0000	23.2400
0.4760	0.0000	23.2400
0.4770	0.0000	23.2400
0.4780	0.0000	23.2400
0.4790	0.0000	23.2400
0.4800	0.0000	23.2400
0.4810	0.0000	23.2400
0.4820	0.0000	23.2400
0.4830	0.0000	23.2400
0.4840	0.0000	23.2400
0.4850	0.0000	23.2400
0.4860	0.0000	23.2400
0.4870	0.0000	23.2400
0.4880	0.0000	23.2400
0.4890	0.0000	23.2400
0.4900	0.0000	23.2400
0.4910	0.0000	23.2400
0.4920	0.0000	23.2400
0.4930	0.0000	23.2400
0.4940	0.0000	23.2400
0.4950	0.0000	23.2400
0.4960	0.0000	23.2400
0.4970	0.0000	23.2400
0.4980	0.0000	23.2400
0.4990	0.0000	23.2400
0.5000	0.0000	23.2400
